<svg width="1200" height="760" viewBox="0 0 1200 760" fill="none" xmlns="http://www.w3.org/2000/svg">
  <defs>
    <linearGradient id="bg" x1="0" y1="0" x2="1200" y2="760" gradientUnits="userSpaceOnUse">
      <stop stop-color="#F3F7F4"/>
      <stop offset="1" stop-color="#DCEEF4"/>
    </linearGradient>
    <linearGradient id="card" x1="0" y1="0" x2="0" y2="1">
      <stop stop-color="#FFFFFF"/>
      <stop offset="1" stop-color="#F7FBFC"/>
    </linearGradient>
    <filter id="shadow" x="-20%" y="-20%" width="140%" height="160%">
      <feDropShadow dx="0" dy="10" stdDeviation="16" flood-color="#0F172A" flood-opacity="0.12"/>
    </filter>
  </defs>

  <rect width="1200" height="760" fill="url(#bg)"/>
  <circle cx="160" cy="110" r="180" fill="#0B7285" fill-opacity="0.08"/>
  <circle cx="1030" cy="640" r="220" fill="#0F766E" fill-opacity="0.08"/>

  <text x="72" y="74" fill="#0F172A" font-family="'Trebuchet MS', 'Segoe UI', sans-serif" font-size="34" font-weight="700">Network Security Monitor</text>
  <text x="72" y="106" fill="#334155" font-family="'Trebuchet MS', 'Segoe UI', sans-serif" font-size="18">Preview of the current CLI, monitoring, and SOC workflow surfaces</text>

  <rect x="72" y="146" width="1056" height="74" rx="24" fill="#FFFFFF" fill-opacity="0.74" stroke="#C9D7DE"/>
  <rect x="92" y="168" width="138" height="30" rx="15" fill="#D9F3E7"/>
  <text x="112" y="188" fill="#0F766E" font-family="'Trebuchet MS', 'Segoe UI', sans-serif" font-size="15" font-weight="700">111 tests passed</text>
  <rect x="246" y="168" width="152" height="30" rx="15" fill="#DBEEF3"/>
  <text x="265" y="188" fill="#0B7285" font-family="'Trebuchet MS', 'Segoe UI', sans-serif" font-size="15" font-weight="700">100 recent alerts</text>
  <rect x="414" y="168" width="184" height="30" rx="15" fill="#FDE8E8"/>
  <text x="434" y="188" fill="#BE123C" font-family="'Trebuchet MS', 'Segoe UI', sans-serif" font-size="15" font-weight="700">Health: critical-events-present</text>
  <rect x="614" y="168" width="166" height="30" rx="15" fill="#E9E5FF"/>
  <text x="635" y="188" fill="#5B21B6" font-family="'Trebuchet MS', 'Segoe UI', sans-serif" font-size="15" font-weight="700">42 automation actions</text>
  <rect x="796" y="168" width="141" height="30" rx="15" fill="#FFF0D6"/>
  <text x="820" y="188" fill="#B45309" font-family="'Trebuchet MS', 'Segoe UI', sans-serif" font-size="15" font-weight="700">8 open incidents</text>

  <rect x="72" y="252" width="318" height="424" rx="26" fill="url(#card)" stroke="#D6E1E6" filter="url(#shadow)"/>
  <rect x="72" y="252" width="318" height="54" rx="26" fill="#0F172A"/>
  <circle cx="102" cy="279" r="6" fill="#FB7185"/>
  <circle cx="124" cy="279" r="6" fill="#FBBF24"/>
  <circle cx="146" cy="279" r="6" fill="#34D399"/>
  <text x="166" y="285" fill="#F8FAFC" font-family="'Trebuchet MS', 'Segoe UI', sans-serif" font-size="18" font-weight="700">CLI Simulation Output</text>

  <text x="96" y="340" fill="#0F172A" font-family="'Consolas', monospace" font-size="16">python main.py --simulate --no-dashboard</text>
  <text x="96" y="378" fill="#475569" font-family="'Consolas', monospace" font-size="15">Processed : 2,184 packets</text>
  <text x="96" y="406" fill="#475569" font-family="'Consolas', monospace" font-size="15">Alerts    : 14 total</text>
  <text x="96" y="434" fill="#BE123C" font-family="'Consolas', monospace" font-size="15">CRITICAL  : 4</text>
  <text x="96" y="462" fill="#B45309" font-family="'Consolas', monospace" font-size="15">HIGH      : 6</text>
  <text x="96" y="490" fill="#0B7285" font-family="'Consolas', monospace" font-size="15">MEDIUM    : 4</text>
  <text x="96" y="540" fill="#0F172A" font-family="'Trebuchet MS', 'Segoe UI', sans-serif" font-size="16" font-weight="700">Latest detections</text>
  <rect x="96" y="560" width="270" height="34" rx="10" fill="#FFF1F2"/>
  <text x="108" y="582" fill="#9F1239" font-family="'Consolas', monospace" font-size="14">[HIGH] PORT_SCAN src=10.0.0.99</text>
  <rect x="96" y="602" width="270" height="34" rx="10" fill="#FEF2F2"/>
  <text x="108" y="624" fill="#991B1B" font-family="'Consolas', monospace" font-size="14">[CRITICAL] SYN_FLOOD src=10.0.99.1</text>

  <rect x="441" y="252" width="318" height="424" rx="26" fill="url(#card)" stroke="#D6E1E6" filter="url(#shadow)"/>
  <rect x="441" y="252" width="318" height="54" rx="26" fill="#0B7285"/>
  <text x="466" y="285" fill="#F8FAFC" font-family="'Trebuchet MS', 'Segoe UI', sans-serif" font-size="18" font-weight="700">Network Watcher</text>
  <text x="466" y="340" fill="#334155" font-family="'Trebuchet MS', 'Segoe UI', sans-serif" font-size="15">Live operational summary from the Flask API surface</text>

  <rect x="466" y="372" width="128" height="86" rx="18" fill="#F5FBFC" stroke="#D6E1E6"/>
  <text x="484" y="402" fill="#64748B" font-family="'Trebuchet MS', 'Segoe UI', sans-serif" font-size="13">Recent Alerts</text>
  <text x="486" y="438" fill="#0F172A" font-family="'Trebuchet MS', 'Segoe UI', sans-serif" font-size="28" font-weight="700">100</text>

  <rect x="606" y="372" width="128" height="86" rx="18" fill="#F5FBFC" stroke="#D6E1E6"/>
  <text x="623" y="402" fill="#64748B" font-family="'Trebuchet MS', 'Segoe UI', sans-serif" font-size="13">SOC Actions</text>
  <text x="628" y="438" fill="#0F172A" font-family="'Trebuchet MS', 'Segoe UI', sans-serif" font-size="28" font-weight="700">42</text>

  <text x="466" y="508" fill="#0F172A" font-family="'Trebuchet MS', 'Segoe UI', sans-serif" font-size="16" font-weight="700">Top source</text>
  <text x="466" y="534" fill="#334155" font-family="'Trebuchet MS', 'Segoe UI', sans-serif" font-size="15">10.0.0.1 (73)</text>

  <text x="466" y="574" fill="#0F172A" font-family="'Trebuchet MS', 'Segoe UI', sans-serif" font-size="16" font-weight="700">Threat mix</text>
  <rect x="466" y="592" width="230" height="14" rx="7" fill="#E2E8F0"/>
  <rect x="466" y="592" width="178" height="14" rx="7" fill="#0B7285"/>
  <text x="705" y="604" fill="#334155" font-family="'Trebuchet MS', 'Segoe UI', sans-serif" font-size="12">PORT_SCAN</text>
  <rect x="466" y="618" width="164" height="14" rx="7" fill="#E2E8F0"/>
  <rect x="466" y="618" width="44" height="14" rx="7" fill="#F97316"/>
  <text x="639" y="630" fill="#334155" font-family="'Trebuchet MS', 'Segoe UI', sans-serif" font-size="12">SUSPICIOUS_PORT</text>

  <rect x="810" y="252" width="318" height="424" rx="26" fill="url(#card)" stroke="#D6E1E6" filter="url(#shadow)"/>
  <rect x="810" y="252" width="318" height="54" rx="26" fill="#0F766E"/>
  <text x="835" y="285" fill="#F8FAFC" font-family="'Trebuchet MS', 'Segoe UI', sans-serif" font-size="18" font-weight="700">SOC Management</text>
  <text x="835" y="340" fill="#334155" font-family="'Trebuchet MS', 'Segoe UI', sans-serif" font-size="15">Incident queue and triage posture</text>

  <rect x="835" y="372" width="120" height="84" rx="18" fill="#FFF7ED" stroke="#EAD9C2"/>
  <text x="852" y="401" fill="#9A3412" font-family="'Trebuchet MS', 'Segoe UI', sans-serif" font-size="13">Open Incidents</text>
  <text x="875" y="437" fill="#9A3412" font-family="'Trebuchet MS', 'Segoe UI', sans-serif" font-size="28" font-weight="700">8</text>

  <rect x="971" y="372" width="120" height="84" rx="18" fill="#FEF2F2" stroke="#F0D0D0"/>
  <text x="986" y="401" fill="#991B1B" font-family="'Trebuchet MS', 'Segoe UI', sans-serif" font-size="13">Critical</text>
  <text x="1017" y="437" fill="#991B1B" font-family="'Trebuchet MS', 'Segoe UI', sans-serif" font-size="28" font-weight="700">4</text>

  <text x="835" y="505" fill="#0F172A" font-family="'Trebuchet MS', 'Segoe UI', sans-serif" font-size="16" font-weight="700">Queue highlights</text>
  <rect x="835" y="526" width="270" height="40" rx="12" fill="#F8FAFC" stroke="#D6E1E6"/>
  <text x="852" y="551" fill="#334155" font-family="'Trebuchet MS', 'Segoe UI', sans-serif" font-size="14">soc-triage</text>
  <text x="1068" y="551" text-anchor="end" fill="#0F172A" font-family="'Trebuchet MS', 'Segoe UI', sans-serif" font-size="14" font-weight="700">30</text>
  <rect x="835" y="574" width="270" height="40" rx="12" fill="#F8FAFC" stroke="#D6E1E6"/>
  <text x="852" y="599" fill="#334155" font-family="'Trebuchet MS', 'Segoe UI', sans-serif" font-size="14">network-incident</text>
  <text x="1068" y="599" text-anchor="end" fill="#0F172A" font-family="'Trebuchet MS', 'Segoe UI', sans-serif" font-size="14" font-weight="700">6</text>

  <text x="72" y="720" fill="#52626C" font-family="'Trebuchet MS', 'Segoe UI', sans-serif" font-size="15">Generated from current repo behavior and verified API/test results on 2026-04-12</text>
</svg>
